<svg width="220" height="120" viewBox="0 0 220 120" xmlns="http://www.w3.org/2000/svg">
  <!-- Yellow figure -->
  <circle cx="150" cy="20" r="10" fill="#F2C300"></circle>
  <path d="M150 35
       C190 35, 205 70, 160 95
       C120 115, 95 95, 80 80
       C120 85, 140 70, 150 35Z" fill="#F2C300"></path>

  <!-- Teal figure -->
  <path d="M70 35
       C30 35, 15 70, 60 95
       C100 115, 125 95, 140 80
       C100 85, 80 70, 70 35Z" fill="#0E8A8A"></path>

  <!-- Heart cutout -->
  <path d="M110 70
       C95 55, 70 55, 70 75
       C70 95, 110 110, 110 110
       C110 110, 150 95, 150 75
       C150 55, 125 55, 110 70Z" fill="white"></path>
</svg>
